<svg version="1.1" id="Layer_1" xmlns="http://www.w3.org/2000/svg" xmlns:xlink="http://www.w3.org/1999/xlink" x="0px" y="0px"
	 width="100%" height="100%" viewBox="172 345 682 341" enable-background="new 0 0 1024 1024" xml:space="preserve">

<path fill="#FFFFFF" opacity="1.000000" stroke="none" 
	d="
M192.238464,588.999878 
	C192.265305,522.351685 192.276535,456.203583 192.376114,390.055603 
	C192.380157,387.365204 193.216888,384.676086 193.665680,381.986359 
	C196.087997,383.480530 198.931412,384.560333 200.870056,386.530426 
	C235.219635,421.437500 269.464447,456.447723 303.716705,491.450500 
	C309.031799,496.882111 308.941864,496.861176 314.270966,491.475586 
	C349.305450,456.069611 384.365021,420.688385 419.422668,385.305298 
	C420.241364,384.478973 421.037903,383.571686 422.009674,382.967377 
	C424.608917,381.351013 426.455078,381.793915 426.797821,385.161072 
	C426.932281,386.481506 426.852875,387.824829 426.853516,389.157715 
	C426.891541,471.468292 426.930725,553.778870 426.958588,636.089417 
	C426.960846,642.817810 425.482208,644.225403 418.717133,644.204224 
	C405.221069,644.162048 391.724976,644.133728 378.228882,644.098450 
	C370.844666,644.079102 369.467682,642.607666 369.472076,635.405823 
	C369.494812,598.249756 369.462433,561.093628 369.439697,523.937561 
	C369.439209,523.131775 369.324585,522.326172 369.200134,520.693298 
	C367.482971,522.307068 366.191315,523.447754 364.981110,524.669128 
	C348.329498,541.475220 331.703552,558.306763 315.037781,575.098755 
	C309.571167,580.606689 309.062408,580.675598 303.466705,575.101624 
	C286.707672,558.407898 270.045898,541.616638 253.338699,524.870789 
	C252.294174,523.823914 251.185272,522.841187 249.168167,520.948181 
	C249.168167,523.494080 249.167770,525.021179 249.168228,526.548279 
	C249.179077,562.704834 249.204147,598.861328 249.190063,635.017883 
	C249.186905,643.122803 248.073318,644.141663 239.862045,644.142151 
	C226.532486,644.142883 213.202911,644.172485 199.873398,644.153015 
	C193.689331,644.143921 192.242554,642.725769 192.228851,636.484985 
	C192.194473,620.823364 192.230713,605.161621 192.238464,588.999878 
z"/>
<path fill="#FFFFFF" opacity="1.000000" stroke="none" 
	d="
M456.697510,595.250793 
	C448.201538,564.251160 453.639221,536.880859 476.087036,513.254517 
	C457.547882,494.979218 450.557343,472.553101 453.352753,447.183228 
	C455.745758,425.465240 465.502197,407.191071 482.094543,392.849274 
	C514.213623,365.086700 563.800964,366.824066 595.068604,396.924835 
	C625.807007,426.516174 630.186462,478.794067 596.839966,512.995056 
	C620.316528,537.903931 626.472534,566.936768 614.812500,599.084045 
	C606.684692,621.492920 590.780334,637.331665 568.824524,646.433167 
	C523.069336,665.400330 471.335907,641.751892 456.697510,595.250793 
M552.111633,594.744934 
	C564.841492,585.653687 569.658630,572.949524 565.389648,559.726868 
	C560.101379,543.347107 541.792236,534.738770 525.487976,540.966553 
	C509.195770,547.189697 501.767365,565.179565 508.883575,581.178467 
	C516.020081,597.223022 535.215820,603.477173 552.111633,594.744934 
M529.666382,486.073853 
	C530.160645,486.147247 530.656067,486.213318 531.148926,486.295135 
	C543.155029,488.287170 554.991760,483.016846 561.458374,472.353027 
	C567.985229,461.589813 568.217285,450.532806 561.337036,439.846649 
	C554.856445,429.781311 542.430054,425.121826 530.266113,427.661133 
	C516.772095,430.478088 507.382141,441.295837 506.593719,454.932800 
	C505.743195,469.643616 513.897522,481.001770 529.666382,486.073853 
z"/>
<path fill="#FFFFFF" opacity="1.000000" stroke="none" 
	d="
M725.031982,431.834473 
	C709.257385,431.839386 709.267822,431.839325 709.185486,416.374054 
	C709.137573,407.375732 709.055908,398.377563 708.977661,389.379456 
	C708.927795,383.644989 710.553528,381.995056 716.381226,382.007874 
	C752.876038,382.088013 789.370911,382.171326 825.865723,382.271027 
	C832.270752,382.288544 833.916748,383.898529 833.952820,390.157135 
	C834.017151,401.322113 834.050720,412.487305 834.068604,423.652466 
	C834.078552,429.853485 832.188782,431.772980 825.513489,431.805817 
	C809.182678,431.886200 792.851074,431.823883 776.519836,431.824158 
	C759.521790,431.824432 742.523682,431.830750 725.031982,431.834473 
z"/>
<path fill="#FFFFFF" opacity="1.000000" stroke="none" 
	d="
M710.841797,642.197083 
	C710.110718,640.170410 709.326233,638.450195 709.297241,636.717224 
	C709.127563,626.561890 709.081177,616.403503 709.095947,606.246277 
	C709.112488,594.789307 709.558350,594.352661 720.829590,594.356445 
	C752.801147,594.367188 784.772644,594.407471 816.744202,594.436157 
	C819.908020,594.439026 823.073486,594.378845 826.235352,594.459106 
	C831.775085,594.599548 833.796021,596.573853 833.826111,602.037231 
	C833.888489,613.360291 833.896301,624.683960 833.848999,636.007019 
	C833.824951,641.770508 831.730408,643.980225 826.134155,643.989441 
	C789.666504,644.049561 753.198792,644.076477 716.731262,644.008057 
	C714.865723,644.004517 713.002014,643.023499 710.841797,642.197083 
z"/>
<path fill="#FFFFFF" opacity="1.000000" stroke="none" 
	d="
M768.031433,521.971802 
	C768.284363,538.164490 768.279663,537.237976 753.348694,537.117493 
	C741.185913,537.019287 729.021667,537.110474 716.858459,537.044678 
	C710.863892,537.012207 709.089050,535.208313 709.079651,529.323547 
	C709.061768,518.159973 709.054321,506.996185 709.109985,495.832825 
	C709.139404,489.935760 710.944580,488.132294 716.917725,488.121918 
	C731.413879,488.096710 745.910339,488.123535 760.406311,488.198425 
	C766.545532,488.230164 767.972656,489.747131 767.998169,495.983978 
	C768.032959,504.481659 768.022156,512.979553 768.031433,521.971802 
z"/>
<path fill="#FFFFFF" opacity="1.000000" stroke="none" 
	d="
M680.994995,589.540039 
	C670.851440,589.516418 661.206421,589.503479 651.561768,589.439392 
	C645.796570,589.401062 644.982910,588.547363 644.898560,582.753418 
	C644.722168,570.643921 644.722168,570.650818 657.087402,570.612244 
	C669.062622,570.574890 681.037842,570.476379 693.013000,570.493225 
	C699.303650,570.502075 700.137024,571.438110 700.141968,577.749878 
	C700.151123,589.632935 700.151184,589.628357 688.479370,589.517944 
	C686.151123,589.495972 683.822266,589.524109 680.994995,589.540039 
z"/>
<path fill="#FFFFFF" opacity="1.000000" stroke="none" 
	d="
M685.956299,382.178345 
	C686.946472,382.180695 687.445007,382.179413 687.943542,382.184143 
	C699.951904,382.298218 702.765625,385.813538 699.623962,397.603973 
	C699.195862,399.210846 696.413879,401.254700 694.689636,401.285156 
	C679.739990,401.549438 664.782959,401.406616 649.828186,401.353149 
	C649.017944,401.350250 647.954224,401.339417 647.438660,400.864899 
	C642.733826,396.534454 645.339172,390.888733 645.195007,385.864868 
	C645.091614,382.262878 648.558533,382.030670 651.565674,382.053131 
	C662.864990,382.137634 674.164917,382.142639 685.956299,382.178345 
z"/>
<path fill="#FFFFFF" opacity="1.000000" stroke="none" 
	d="
M644.905273,417.152710 
	C644.986572,410.353668 645.527893,409.705963 651.643860,409.683533 
	C665.632507,409.632202 679.622070,409.745361 693.609863,409.627258 
	C698.253723,409.588074 700.114380,411.372437 700.092346,416.158295 
	C700.034668,428.661560 700.195923,428.582703 687.499084,428.479492 
	C677.009766,428.394226 666.517456,428.438446 656.028748,428.586456 
	C645.193604,428.739319 644.932739,428.566528 644.905273,417.152710 
z"/>
<path fill="#FFFFFF" opacity="1.000000" stroke="none" 
	d="
M645.040649,605.223877 
	C645.211304,598.609375 645.958923,597.802368 651.967773,597.780457 
	C665.796204,597.730164 679.624939,597.707092 693.453430,597.729065 
	C698.935730,597.737732 700.023865,598.932556 700.079224,604.577515 
	C700.197754,616.670715 700.197998,616.617859 688.116638,616.564880 
	C677.454163,616.518127 666.790955,616.572815 656.128479,616.645508 
	C644.985779,616.721558 644.969299,616.737793 645.040649,605.223877 
z"/>
<path fill="#FFFFFF" opacity="1.000000" stroke="none" 
	d="
M673.991455,624.693115 
	C680.985291,624.714355 687.482910,624.814026 693.978210,624.731934 
	C698.217712,624.678467 700.396301,626.099060 700.339966,630.824646 
	C700.187744,643.582214 701.682556,644.155457 687.310303,643.920166 
	C675.652954,643.729248 663.989502,643.935852 652.328857,643.915222 
	C646.280090,643.904541 645.096313,642.675659 644.979187,636.605530 
	C644.751892,624.820801 644.751831,624.811096 656.503113,624.735352 
	C662.166748,624.698792 667.830566,624.706665 673.991455,624.693115 
z"/>
<path fill="#FFFFFF" opacity="1.000000" stroke="none" 
	d="
M678.997925,535.480347 
	C669.671936,535.473633 660.845459,535.507019 652.019531,535.447021 
	C646.323792,535.408325 645.224426,534.358887 645.155396,528.818237 
	C645.011658,517.295349 643.051147,516.775818 656.894287,516.823608 
	C669.218628,516.866150 681.544556,516.825928 693.867615,516.658997 
	C698.235657,516.599854 700.322205,518.124878 700.147217,522.778259 
	C699.699280,534.695129 702.471252,536.164612 687.491272,535.530273 
	C684.830811,535.417603 682.162415,535.492615 678.997925,535.480347 
z"/>
<path fill="#FFFFFF" opacity="1.000000" stroke="none" 
	d="
M661.021362,463.312317 
	C672.158691,463.292358 682.800232,463.220520 693.441162,463.275330 
	C699.116699,463.304565 700.068054,464.364288 700.133179,470.010468 
	C700.272095,482.052887 700.272156,482.016205 688.270691,481.991547 
	C676.299255,481.966980 664.327576,482.058807 652.356140,482.035583 
	C645.963684,482.023193 645.101135,481.119415 645.054565,474.915466 
	C644.968445,463.444305 644.968445,463.444183 656.535095,463.343384 
	C657.865173,463.331818 659.195312,463.323120 661.021362,463.312317 
z"/>
<path fill="#FFFFFF" opacity="1.000000" stroke="none" 
	d="
M651.359985,490.028015 
	C665.482239,490.010681 679.143127,489.974213 692.804077,489.990448 
	C699.404419,489.998291 700.080139,490.699005 700.098694,497.060883 
	C700.133728,509.060516 700.133789,509.040527 688.054810,509.002533 
	C676.059937,508.964813 664.064880,508.997040 652.070129,508.950684 
	C646.217407,508.928070 645.089233,507.761993 645.013733,501.954712 
	C644.989929,500.122345 645.138672,498.273895 644.947571,496.460297 
	C644.474548,491.970978 646.436096,489.879700 651.359985,490.028015 
z"/>
<path fill="#FFFFFF" opacity="1.000000" stroke="none" 
	d="
M645.025024,549.293579 
	C644.693420,545.060242 646.875244,543.749939 650.187378,543.749268 
	C665.180298,543.746155 680.173279,543.789062 695.166199,543.816956 
	C698.402466,543.822937 700.122742,545.352173 700.122375,548.684021 
	C700.120544,563.255371 701.493530,562.457214 687.430908,562.363159 
	C675.936096,562.286316 664.440552,562.324829 652.945374,562.305786 
	C645.785278,562.293945 645.236145,561.761169 645.100525,554.747131 
	C645.068298,553.081482 645.050842,551.415649 645.025024,549.293579 
z"/>
<path fill="#FFFFFF" opacity="1.000000" stroke="none" 
	d="
M648.203491,454.971008 
	C645.169556,452.404175 643.529785,441.180847 645.830688,438.728577 
	C646.911438,437.576752 649.024597,436.876221 650.678345,436.860474 
	C665.163147,436.722626 679.649902,436.805695 694.135986,436.776733 
	C698.245850,436.768524 700.081055,438.493744 700.110413,442.813416 
	C700.194763,455.221039 700.317810,455.247986 688.029663,455.237854 
	C674.882385,455.226990 661.735046,455.156647 648.203491,454.971008 
z"/>
<path fill="#0a0a0a" opacity="1.000000" stroke="none" 
	d="
M551.771301,594.892883 
	C535.215820,603.477173 516.020081,597.223022 508.883575,581.178467 
	C501.767365,565.179565 509.195770,547.189697 525.487976,540.966553 
	C541.792236,534.738770 560.101379,543.347107 565.389648,559.726868 
	C569.658630,572.949524 564.841492,585.653687 551.771301,594.892883 
z"/>
<path fill="#0a0a0a" opacity="1.000000" stroke="none" 
	d="
M529.259644,486.005737 
	C513.897522,481.001770 505.743195,469.643616 506.593719,454.932800 
	C507.382141,441.295837 516.772095,430.478088 530.266113,427.661133 
	C542.430054,425.121826 554.856445,429.781311 561.337036,439.846649 
	C568.217285,450.532806 567.985229,461.589813 561.458374,472.353027 
	C554.991760,483.016846 543.155029,488.287170 531.148926,486.295135 
	C530.656067,486.213318 530.160645,486.147247 529.259644,486.005737 
z"/>
</svg>